<svg width="151" height="29" viewBox="0 0 151 29" fill="none" xmlns="http://www.w3.org/2000/svg">
<g clip-path="url(#clip0_900_863)">
<g clip-path="url(#clip1_900_863)">
<mask id="mask0_900_863" style="mask-type:luminance" maskUnits="userSpaceOnUse" x="1" y="0" width="44" height="29">
<path d="M40.7911 0.740234H5.62012C3.41098 0.740234 1.62012 2.5311 1.62012 4.74023V24.7402C1.62012 26.9494 3.41098 28.7402 5.62012 28.7402H40.7911C43.0003 28.7402 44.7911 26.9494 44.7911 24.7402V4.74023C44.7911 2.5311 43.0003 0.740234 40.7911 0.740234Z" fill="white"/>
</mask>
<g mask="url(#mask0_900_863)">
<path d="M15.4573 20.6034L17.4383 8.97843H20.6073L18.6243 20.6034H15.4573ZM30.0723 9.22842C29.162 8.89904 28.2004 8.73382 27.2323 8.74043C24.1023 8.74043 21.8963 10.3174 21.8773 12.5764C21.8593 14.2474 23.4523 15.1794 24.6543 15.7354C25.8873 16.3054 26.3023 16.6684 26.2963 17.1774C26.2883 17.9574 25.3113 18.3124 24.4003 18.3124C23.1323 18.3124 22.4583 18.1364 21.4173 17.7024L21.0093 17.5174L20.5643 20.1204C21.3043 20.4444 22.6733 20.7254 24.0943 20.7404C27.4243 20.7404 29.5873 19.1814 29.6123 16.7684C29.6243 15.4464 28.7793 14.4394 26.9523 13.6094C25.8443 13.0724 25.1653 12.7134 25.1723 12.1694C25.1723 11.6854 25.7473 11.1694 26.9873 11.1694C27.8003 11.1511 28.6082 11.3027 29.3593 11.6144L29.6433 11.7484L30.0723 9.22842ZM38.2273 8.97843H35.7783C35.0203 8.97843 34.4523 9.18542 34.1183 9.94242L29.4133 20.5954H32.7403C32.7403 20.5954 33.2843 19.1634 33.4073 18.8484L37.4653 18.8534C37.5603 19.2604 37.8513 20.5954 37.8513 20.5954H40.7913L38.2273 8.97843ZM34.3423 16.4844C34.6043 15.8144 35.6043 13.2344 35.6043 13.2344C35.5863 13.2654 35.8643 12.5624 36.0243 12.1254L36.2393 13.1274L36.9723 16.4844H34.3423ZM12.7673 8.97743L9.66531 16.9054L9.33531 15.2954C8.75731 13.4374 6.95731 11.4254 4.94531 10.4184L7.78331 20.5844L11.1353 20.5814L16.1243 8.97743H12.7673Z" fill="#0E4595"/>
<path d="M6.77012 8.97754H1.66012L1.62012 9.21954C5.59512 10.1815 8.22612 12.5075 9.31812 15.3015L8.20712 9.96054C8.01512 9.22454 7.45912 9.00454 6.77012 8.97954" fill="#F2AE14"/>
</g>
<path d="M79.4879 18.5125H73.2319V7.26953H79.4879V18.5125Z" fill="#FF5F00"/>
<path d="M87.4698 23.4946V23.5406H87.5128C87.5208 23.5407 87.5288 23.5386 87.5358 23.5346C87.5383 23.5328 87.5403 23.5304 87.5418 23.5276C87.5433 23.5245 87.544 23.521 87.5438 23.5176C87.544 23.5141 87.5433 23.5107 87.5418 23.5076C87.5403 23.5048 87.5383 23.5024 87.5358 23.5006C87.5289 23.4963 87.5209 23.4942 87.5128 23.4946H87.4698ZM87.5128 23.4616C87.5313 23.4604 87.5497 23.4657 87.5648 23.4766C87.5707 23.4815 87.5755 23.4878 87.5786 23.495C87.5817 23.5021 87.5832 23.5098 87.5828 23.5176C87.5828 23.5246 87.5828 23.5316 87.5798 23.5376C87.5772 23.5436 87.5735 23.549 87.5688 23.5536C87.5571 23.564 87.5424 23.5704 87.5268 23.5716L87.5848 23.6376H87.5398L87.4868 23.5716H87.4698V23.6376H87.4328V23.4626L87.5128 23.4616ZM87.5018 23.6976C87.5259 23.6973 87.5496 23.6912 87.5707 23.6796C87.5919 23.668 87.6099 23.6515 87.6231 23.6313C87.6364 23.6111 87.6445 23.588 87.6467 23.564C87.6489 23.54 87.6451 23.5158 87.6358 23.4936C87.6206 23.4586 87.5927 23.4307 87.5578 23.4156C87.5399 23.4086 87.5209 23.4052 87.5018 23.4056C87.4623 23.4051 87.4242 23.4202 87.3958 23.4476C87.3689 23.4755 87.3539 23.5128 87.3539 23.5516C87.3539 23.5904 87.3689 23.6276 87.3958 23.6556C87.4097 23.6695 87.4262 23.6804 87.4444 23.6878C87.4626 23.6952 87.4821 23.6979 87.5018 23.6976ZM87.5018 23.3636C87.5391 23.3638 87.5755 23.3748 87.6067 23.3952C87.6379 23.4156 87.6626 23.4445 87.6778 23.4786C87.6928 23.5131 87.6971 23.5513 87.6899 23.5883C87.6828 23.6253 87.6646 23.6592 87.6378 23.6856C87.62 23.7035 87.5988 23.7177 87.5754 23.7273C87.5521 23.7369 87.527 23.7418 87.5018 23.7416C87.4762 23.7418 87.4509 23.737 87.4272 23.7274C87.4035 23.7177 87.3819 23.7035 87.3638 23.6856C87.3376 23.6584 87.3199 23.6241 87.3128 23.587C87.3057 23.5499 87.3095 23.5116 87.3238 23.4766C87.3333 23.454 87.3473 23.4336 87.3648 23.4164C87.3823 23.3992 87.403 23.3857 87.4258 23.3766C87.4498 23.3665 87.4757 23.3614 87.5018 23.3616M69.7898 22.6876C69.7898 22.3536 70.0088 22.0796 70.3658 22.0796C70.7078 22.0796 70.9378 22.3416 70.9378 22.6876C70.9378 23.0326 70.7078 23.2956 70.3658 23.2956C70.0088 23.2956 69.7898 23.0216 69.7898 22.6876ZM71.3268 22.6876V21.7376H70.9138V21.9696C70.8434 21.8785 70.7521 21.8056 70.6477 21.7571C70.5433 21.7085 70.4288 21.6857 70.3138 21.6906C69.7828 21.6906 69.3648 22.1086 69.3648 22.6876C69.3648 23.2676 69.7828 23.6846 70.3148 23.6846C70.4297 23.6896 70.5442 23.6669 70.6486 23.6185C70.753 23.5702 70.8442 23.4975 70.9148 23.4066V23.6366H71.3268V22.6866V22.6876ZM85.2758 22.6876C85.2758 22.3536 85.4948 22.0796 85.8518 22.0796C86.1938 22.0796 86.4238 22.3416 86.4238 22.6876C86.4238 23.0326 86.1938 23.2956 85.8518 23.2956C85.4948 23.2956 85.2758 23.0216 85.2758 22.6876ZM86.8138 22.6876V20.9756H86.3998V21.9696C86.3294 21.8785 86.2381 21.8056 86.1337 21.7571C86.0293 21.7085 85.9148 21.6857 85.7998 21.6906C85.2688 21.6906 84.8508 22.1086 84.8508 22.6876C84.8508 23.2676 85.2678 23.6846 85.8008 23.6846C85.9157 23.6896 86.0302 23.6669 86.1346 23.6185C86.239 23.5702 86.3302 23.4975 86.4008 23.4066V23.6366H86.8138V22.6866V22.6876ZM76.4508 22.0596C76.7168 22.0596 76.8878 22.2266 76.9308 22.5196H75.9458C75.9898 22.2466 76.1558 22.0596 76.4508 22.0596ZM76.4588 21.6896C75.9028 21.6896 75.5138 22.0946 75.5138 22.6866C75.5138 23.2906 75.9188 23.6836 76.4868 23.6836C76.7728 23.6836 77.0348 23.6126 77.2648 23.4176L77.0628 23.1116C76.906 23.2374 76.7118 23.3074 76.5108 23.3106C76.2448 23.3106 76.0018 23.1876 75.9428 22.8456H77.3528C77.3558 22.7936 77.3608 22.7426 77.3608 22.6866C77.3558 22.0946 76.9908 21.6896 76.4588 21.6896ZM81.4428 22.6866C81.4428 22.3526 81.6618 22.0786 82.0188 22.0786C82.3608 22.0786 82.5908 22.3416 82.5908 22.6866C82.5908 23.0326 82.3608 23.2946 82.0188 23.2946C81.6618 23.2946 81.4428 23.0206 81.4428 22.6866ZM82.9798 22.6866V21.7376H82.5668V21.9696C82.4964 21.8785 82.4051 21.8056 82.3007 21.7571C82.1963 21.7085 82.0818 21.6857 81.9668 21.6906C81.4358 21.6906 81.0178 22.1086 81.0178 22.6876C81.0178 23.2676 81.4358 23.6846 81.9678 23.6846C82.0827 23.6896 82.1972 23.6669 82.3016 23.6185C82.406 23.5702 82.4972 23.4975 82.5678 23.4066V23.6366H82.9798V22.6866ZM79.1118 22.6866C79.1118 23.2626 79.5118 23.6836 80.1248 23.6836C80.4108 23.6836 80.6008 23.6196 80.8068 23.4576L80.6088 23.1236C80.4657 23.2322 80.2914 23.2919 80.1118 23.2936C79.7818 23.2906 79.5398 23.0526 79.5398 22.6866C79.5398 22.3216 79.7818 22.0826 80.1118 22.0786C80.2908 22.0786 80.4528 22.1386 80.6088 22.2496L80.8068 21.9156C80.6008 21.7536 80.4098 21.6896 80.1248 21.6896C79.5128 21.6896 79.1118 22.1106 79.1118 22.6866ZM84.4338 21.6896C84.3331 21.6867 84.2336 21.711 84.1456 21.7599C84.0576 21.8088 83.9844 21.8806 83.9338 21.9676V21.7376H83.5238V23.6356H83.9368V22.5716C83.9368 22.2576 84.0728 22.0836 84.3418 22.0836C84.43 22.0821 84.5177 22.0981 84.5998 22.1306L84.7278 21.7416C84.6335 21.7076 84.534 21.69 84.4338 21.6896ZM73.3678 21.8896C73.1698 21.7576 72.8958 21.6896 72.5938 21.6896C72.1138 21.6896 71.8038 21.9206 71.8038 22.2976C71.8038 22.6076 72.0338 22.7976 72.4578 22.8576L72.6538 22.8856C72.8798 22.9176 72.9868 22.9766 72.9868 23.0846C72.9868 23.2306 72.8368 23.3146 72.5538 23.3146C72.2678 23.3146 72.0618 23.2236 71.9228 23.1166L71.7288 23.4386C71.9548 23.6046 72.2408 23.6846 72.5508 23.6846C73.0988 23.6846 73.4168 23.4266 73.4168 23.0646C73.4168 22.7306 73.1668 22.5566 72.7528 22.4966L72.5588 22.4686C72.3798 22.4456 72.2368 22.4096 72.2368 22.2826C72.2368 22.1436 72.3718 22.0596 72.5978 22.0596C72.8408 22.0596 73.0748 22.1516 73.1898 22.2226L73.3688 21.8886L73.3678 21.8896ZM78.6948 21.6896C78.594 21.6867 78.4944 21.7111 78.4063 21.7602C78.3183 21.8093 78.2452 21.8813 78.1948 21.9686V21.7386H77.7848V23.6356H78.1988V22.5716C78.1988 22.2576 78.3338 22.0836 78.6028 22.0836C78.6914 22.082 78.7794 22.098 78.8618 22.1306L78.9888 21.7416C78.8945 21.7076 78.795 21.69 78.6948 21.6896ZM75.1718 21.7376H74.4968V21.1616H74.0798V21.7376H73.6948V22.1146H74.0798V22.9816C74.0798 23.4216 74.2498 23.6836 74.7388 23.6836C74.9211 23.6844 75.0999 23.6338 75.2548 23.5376L75.1358 23.1836C75.0251 23.2495 74.8995 23.2863 74.7708 23.2906C74.5638 23.2906 74.4968 23.1636 74.4968 22.9736V22.1156H75.1718V21.7376ZM68.9998 23.6366V22.4456C68.9998 21.9956 68.7138 21.6946 68.2528 21.6906C68.0108 21.6866 67.7608 21.7616 67.5858 22.0286C67.5213 21.9211 67.4291 21.8329 67.3187 21.7734C67.2084 21.714 67.084 21.6853 66.9588 21.6906C66.7558 21.6906 66.5578 21.7506 66.4028 21.9726V21.7376H65.9888V23.6356H66.4058V22.5836C66.4058 22.2536 66.5878 22.0786 66.8708 22.0786C67.1448 22.0786 67.2838 22.2576 67.2838 22.5786V23.6356H67.7008V22.5836C67.7008 22.2536 67.8908 22.0786 68.1648 22.0786C68.4468 22.0786 68.5818 22.2576 68.5818 22.5786V23.6356L68.9998 23.6366Z" fill="#231F20"/>
<path d="M73.629 12.8905C73.6281 11.8079 73.8734 10.7393 74.3463 9.76543C74.8193 8.7916 75.5076 7.9381 76.359 7.26949C75.3043 6.44058 74.0376 5.92512 72.7038 5.78201C71.3699 5.63891 70.0227 5.87393 68.8161 6.46022C67.6095 7.04652 66.5922 7.96043 65.8805 9.09752C65.1687 10.2346 64.7912 11.549 64.791 12.8905C64.791 14.2321 65.1684 15.5466 65.8801 16.6838C66.5918 17.8211 67.6091 18.7351 68.8157 19.3215C70.0223 19.908 71.3696 20.1431 72.7035 20C74.0374 19.8569 75.3042 19.3415 76.359 18.5125C75.5074 17.8438 74.8191 16.9901 74.3461 16.0161C73.8731 15.0421 73.6279 13.9733 73.629 12.8905Z" fill="#EB001B"/>
<path d="M87.9279 12.8903C87.9279 14.2319 87.5505 15.5464 86.8388 16.6836C86.1271 17.8209 85.1098 18.7349 83.9032 19.3213C82.6966 19.9077 81.3493 20.1428 80.0154 19.9998C78.6814 19.8567 77.4147 19.3412 76.3599 18.5123C77.2118 17.8438 77.9004 16.9902 78.3735 16.0161C78.8467 15.0421 79.092 13.9732 79.0909 12.8903C79.0917 11.8077 78.8462 10.7392 78.3731 9.76552C77.8999 8.79186 77.2115 7.93858 76.3599 7.27028C77.4146 6.44107 78.6814 5.92536 80.0154 5.7821C81.3494 5.63883 82.6968 5.87379 83.9035 6.46012C85.1103 7.04645 86.1277 7.96048 86.8396 9.09775C87.5514 10.235 87.9289 11.5496 87.9289 12.8913" fill="#F79E1B"/>
<mask id="mask1_900_863" style="mask-type:luminance" maskUnits="userSpaceOnUse" x="111" y="8" width="35" height="13">
<path d="M111.928 8.74023H145.095V20.7402H111.928V8.74023Z" fill="white"/>
</mask>
<g mask="url(#mask1_900_863)">
<path d="M118.35 20.7422V15.5482H123.852L124.443 16.3182L125.053 15.5482H145.013V20.3832C145.013 20.3832 144.492 20.7352 143.889 20.7422H132.834L132.167 19.9222V20.7422H129.988V19.3422C129.988 19.3422 129.69 19.5382 129.046 19.5382H128.303V20.7422H125.003L124.413 19.9562L123.816 20.7422H118.35ZM111.928 11.6302L113.169 8.74023H115.315L116.018 10.3582V8.74023H118.685L119.102 9.91023L119.507 8.74023H131.477V9.32723C131.477 9.32723 132.107 8.74023 133.139 8.74023L137.023 8.75323L137.716 10.3512V8.74023H139.948L140.562 9.65823V8.74023H142.814V13.9372H140.562L139.975 13.0152V13.9372H136.698L136.369 13.1172H135.487L135.162 13.9372H132.94C132.399 13.9307 131.88 13.7253 131.481 13.3602V13.9372H128.124L127.457 13.1172V13.9372H114.996L114.668 13.1172H113.789L113.461 13.9372H111.928V11.6302Z" fill="#1F2937"/>
<path d="M113.607 9.38193L111.935 13.2719H113.023L113.331 12.4929H115.126L115.434 13.2729H116.549L114.877 9.38293L113.607 9.38193ZM114.227 10.2839L114.774 11.6439H113.68L114.227 10.2839ZM116.661 13.2699V9.37793L118.21 9.38393L119.109 11.8919L119.988 9.37793H121.524V13.2679H120.552V10.4039L119.52 13.2689H118.668L117.633 10.4039V13.2689L116.661 13.2699ZM122.191 13.2699V9.37793H125.365V10.2469H123.176V10.9129H125.312V11.7329H123.172V12.4229H125.361V13.2679H122.191V13.2699ZM125.925 9.38193V13.2719H126.897V11.8899H127.305L128.472 13.2729H129.66L128.379 11.8399C128.674 11.8107 128.947 11.6718 129.145 11.4507C129.343 11.2297 129.45 10.9425 129.447 10.6459C129.447 9.82593 128.804 9.38593 128.087 9.38593L125.925 9.38193ZM126.897 10.2519H128.008C128.273 10.2519 128.469 10.4599 128.469 10.6589C128.469 10.9179 128.217 11.0669 128.021 11.0669H126.897V10.2509V10.2519ZM130.837 13.2699H129.845V9.37793H130.837V13.2679V13.2699ZM133.192 13.2699H132.977C131.938 13.2699 131.312 12.4529 131.312 11.3419C131.312 10.2049 131.935 9.38193 133.242 9.38193H134.317V10.3039H133.205C132.675 10.3039 132.297 10.7189 132.297 11.3519C132.297 12.1049 132.728 12.4199 133.345 12.4199H133.6L133.192 13.2699ZM135.308 9.38193L133.636 13.2689H134.724L135.033 12.4889H136.827L137.135 13.2689H138.247L136.575 9.37893L135.308 9.38193ZM135.925 10.2839L136.472 11.6439H135.378L135.925 10.2839ZM138.359 13.2699V9.37793H139.597L141.175 11.8219V9.37993H142.147V13.2699H140.95L139.331 10.7629V13.2699H138.359ZM119.016 20.0749V16.1849H122.19V17.0539H120.001V17.7199H122.141V18.5399H120.001V19.2299H122.19V20.0749H119.016ZM134.562 20.0749V16.1849H137.736V17.0539H135.547V17.7199H137.676V18.5399H135.547V19.2299H137.736V20.0749H134.562ZM122.313 20.0749L123.859 18.1549L122.276 16.1849H123.5L124.442 17.4019L125.388 16.1849H126.565L125.003 18.1279L126.552 20.0719H125.328L124.412 18.8749L123.52 20.0719L122.313 20.0749ZM126.668 16.1879V20.0779H127.666V18.8509H128.691C129.557 18.8509 130.214 18.3909 130.214 17.4979C130.214 16.7579 129.7 16.1909 128.817 16.1909H126.668V16.1879ZM127.666 17.0669H128.744C129.023 17.0669 129.225 17.2389 129.225 17.5139C129.225 17.7739 129.026 17.9619 128.741 17.9619H127.666V17.0669ZM130.631 16.1849V20.0749H131.603V18.6919H132.011L133.179 20.0749H134.366L133.086 18.6419C133.381 18.6127 133.654 18.4738 133.852 18.2527C134.05 18.0317 134.157 17.7445 134.154 17.4479C134.154 16.6289 133.51 16.1879 132.794 16.1879L130.631 16.1849ZM131.607 17.0569H132.718C132.983 17.0569 133.179 17.2669 133.179 17.4649C133.179 17.7239 132.927 17.8729 132.731 17.8729H131.607V17.0569ZM138.187 20.0749V19.2289H140.134C140.423 19.2289 140.545 19.0729 140.545 18.9039C140.545 18.7419 140.423 18.5759 140.134 18.5759H139.255C138.492 18.5759 138.065 18.1119 138.065 17.4119C138.065 16.7879 138.456 16.1879 139.59 16.1879H141.484L141.076 17.0629H139.438C139.126 17.0629 139.03 17.2289 139.03 17.3849C139.03 17.5479 139.149 17.7229 139.388 17.7229H140.31C141.162 17.7229 141.531 18.2079 141.531 18.8409C141.531 19.5209 141.119 20.0779 140.264 20.0779H138.187V20.0749ZM141.756 20.0749V19.2289H143.703C143.991 19.2289 144.114 19.0729 144.114 18.9039C144.114 18.7419 143.991 18.5759 143.703 18.5759H142.824C142.061 18.5759 141.633 18.1119 141.633 17.4119C141.633 16.7879 142.024 16.1879 143.159 16.1879H145.052L144.645 17.0629H143.006C142.694 17.0629 142.598 17.2289 142.598 17.3849C142.598 17.5479 142.717 17.7229 142.956 17.7229H143.878C144.731 17.7229 145.099 18.2079 145.099 18.8409C145.099 19.5209 144.688 20.0779 143.832 20.0779H141.756V20.0749Z" fill="#016FD0"/>
</g>
</g>
</g>
<defs>
<clipPath id="clip0_900_863">
<rect width="150" height="28" fill="white" transform="translate(0.169922 0.740234)"/>
</clipPath>
<clipPath id="clip1_900_863">
<rect width="148" height="28" fill="white" transform="translate(1.16992 0.740234)"/>
</clipPath>
</defs>
</svg>
